{
  "accessors": [
    {
      "bufferView": 2,
      "componentType": 5126,
      "count": 375,
      "max": [
        15.29947280883789,
        18.753002166748047,
        7.4054460525512695
      ],
      "min": [
        -15.1760835647583,
        0.0002288818359375,
        2.076603412628174
      ],
      "type": "VEC3"
    },
    {
      "bufferView": 2,
      "byteOffset": 4500,
      "componentType": 5126,
      "count": 375,
      "max": [
        0.9999998807907104,
        1.0,
        1.0
      ],
      "min": [
        -0.9999997615814209,
        -0.9999994039535522,
        -0.9999951124191284
      ],
      "type": "VEC3"
    },
    {
      "bufferView": 1,
      "componentType": 5126,
      "count": 375,
      "max": [
        0.9946168065071106,
        1.0037906169891357
      ],
      "min": [
        -789.8511352539063,
        -697.0374755859375
      ],
      "type": "VEC2"
    },
    {
      "bufferView": 1,
      "byteOffset": 3000,
      "componentType": 5126,
      "count": 375,
      "max": [
        0.9946168065071106,
        1.0037906169891357
      ],
      "min": [
        -789.8511352539063,
        -697.0374755859375
      ],
      "type": "VEC2"
    },
    {
      "bufferView": 1,
      "byteOffset": 6000,
      "componentType": 5126,
      "count": 375,
      "max": [
        0.9946168065071106,
        1.0037906169891357
      ],
      "min": [
        -789.8511352539063,
        -697.0374755859375
      ],
      "type": "VEC2"
    },
    {
      "bufferView": 0,
      "componentType": 5125,
      "count": 666,
      "type": "SCALAR"
    },
    {
      "bufferView": 2,
      "byteOffset": 9000,
      "componentType": 5126,
      "count": 65,
      "max": [
        16.05686378479004,
        18.753002166748047,
        6.395842552185059
      ],
      "min": [
        -15.994682312011719,
        -0.0038976669311523438,
        -6.400859832763672
      ],
      "type": "VEC3"
    },
    {
      "bufferView": 2,
      "byteOffset": 9780,
      "componentType": 5126,
      "count": 65,
      "max": [
        0.9999998807907104,
        0.003699973924085498,
        0.9999997615814209
      ],
      "min": [
        -0.9999997615814209,
        -0.0030999849550426006,
        -0.0006999998004175723
      ],
      "type": "VEC3"
    },
    {
      "bufferView": 1,
      "byteOffset": 9000,
      "componentType": 5126,
      "count": 65,
      "max": [
        0.9975043535232544,
        0.9949511885643005
      ],
      "min": [
        0.0,
        0.02382981777191162
      ],
      "type": "VEC2"
    },
    {
      "bufferView": 1,
      "byteOffset": 9520,
      "componentType": 5126,
      "count": 65,
      "max": [
        0.9975043535232544,
        0.9949511885643005
      ],
      "min": [
        0.0,
        0.02382981777191162
      ],
      "type": "VEC2"
    },
    {
      "bufferView": 0,
      "byteOffset": 2664,
      "componentType": 5125,
      "count": 99,
      "type": "SCALAR"
    },
    {
      "bufferView": 2,
      "byteOffset": 10560,
      "componentType": 5126,
      "count": 353,
      "max": [
        16.04983901977539,
        18.75262451171875,
        6.383608341217041
      ],
      "min": [
        -15.986169815063477,
        -0.0038976669311523438,
        -8.23300552368164
      ],
      "type": "VEC3"
    },
    {
      "bufferView": 2,
      "byteOffset": 14796,
      "componentType": 5126,
      "count": 353,
      "max": [
        0.9999997615814209,
        1.0,
        1.0
      ],
      "min": [
        -0.9999997615814209,
        -0.9999983310699463,
        -1.0
      ],
      "type": "VEC3"
    },
    {
      "bufferView": 1,
      "byteOffset": 10040,
      "componentType": 5126,
      "count": 353,
      "max": [
        466.0500183105469,
        0.9944875836372375
      ],
      "min": [
        -0.04869815334677696,
        -474.4456481933594
      ],
      "type": "VEC2"
    },
    {
      "bufferView": 1,
      "byteOffset": 12864,
      "componentType": 5126,
      "count": 353,
      "max": [
        466.0500183105469,
        0.9944875836372375
      ],
      "min": [
        -0.04869815334677696,
        -474.4456481933594
      ],
      "type": "VEC2"
    },
    {
      "bufferView": 1,
      "byteOffset": 15688,
      "componentType": 5126,
      "count": 353,
      "max": [
        466.0500183105469,
        0.9944875836372375
      ],
      "min": [
        -0.04869815334677696,
        -474.4456481933594
      ],
      "type": "VEC2"
    },
    {
      "bufferView": 0,
      "byteOffset": 3060,
      "componentType": 5125,
      "count": 633,
      "type": "SCALAR"
    },
    {
      "bufferView": 2,
      "byteOffset": 19032,
      "componentType": 5126,
      "count": 56,
      "max": [
        16.056737899780273,
        18.753002166748047,
        6.389288902282715
      ],
      "min": [
        -15.994682312011719,
        15.142353057861328,
        -6.400859832763672
      ],
      "type": "VEC3"
    },
    {
      "bufferView": 2,
      "byteOffset": 19704,
      "componentType": 5126,
      "count": 56,
      "max": [
        0.0007999988156370819,
        1.0,
        0.00629987521097064
      ],
      "min": [
        -0.0009999993490055203,
        0.9567573070526123,
        -0.2908870279788971
      ],
      "type": "VEC3"
    },
    {
      "bufferView": 1,
      "byteOffset": 18512,
      "componentType": 5126,
      "count": 56,
      "max": [
        2.1347603797912598,
        1.410780906677246
      ],
      "min": [
        -1.057800054550171,
        -0.21087539196014404
      ],
      "type": "VEC2"
    },
    {
      "bufferView": 1,
      "byteOffset": 18960,
      "componentType": 5126,
      "count": 56,
      "max": [
        2.1347603797912598,
        1.410780906677246
      ],
      "min": [
        -1.057800054550171,
        -0.21087539196014404
      ],
      "type": "VEC2"
    },
    {
      "bufferView": 0,
      "byteOffset": 5592,
      "componentType": 5125,
      "count": 156,
      "type": "SCALAR"
    }
  ],
  "asset": {
    "extras": {
      "author": "bean(alwayshasbean) (https://sketchfab.com/alwayshasbean)",
      "license": "CC-BY-4.0 (http://creativecommons.org/licenses/by/4.0/)",
      "source": "https://sketchfab.com/3d-models/5-storey-residential-building-3468ccfd9e35495fb377f7c6d67518ae",
      "title": "5 storey residential building"
    },
    "generator": "Sketchfab-16.64.0",
    "version": "2.0"
  },
  "bufferViews": [
    {
      "buffer": 0,
      "byteLength": 6216,
      "name": "floatBufferViews",
      "target": 34963
    },
    {
      "buffer": 0,
      "byteLength": 19408,
      "byteOffset": 6216,
      "byteStride": 8,
      "name": "floatBufferViews",
      "target": 34962
    },
    {
      "buffer": 0,
      "byteLength": 20376,
      "byteOffset": 25624,
      "byteStride": 12,
      "name": "floatBufferViews",
      "target": 34962
    }
  ],
  "buffers": [
    {
      "byteLength": 46000,
      "uri": "scene.bin"
    }
  ],
  "extensionsUsed": [
    "KHR_materials_specular"
  ],
  "images": [
    {
      "uri": "textures/Standard2_baseColor.jpeg"
    },
    {
      "uri": "textures/Standard2_specularf0.png"
    },
    {
      "uri": "textures/Standa3_baseColor.jpeg"
    },
    {
      "uri": "textures/Standa4_baseColor.jpeg"
    },
    {
      "uri": "textures/Standa4_specularf0.png"
    },
    {
      "uri": "textures/grey_baseColor.jpeg"
    },
    {
      "uri": "textures/grey_specularf0.png"
    }
  ],
  "materials": [
    {
      "doubleSided": true,
      "extensions": {
        "KHR_materials_specular": {
          "specularColorFactor": [
            1.0,
            1.0,
            1.0
          ],
          "specularFactor": 1.0,
          "specularTexture": {
            "index": 1
          }
        }
      },
      "name": "Standard2",
      "pbrMetallicRoughness": {
        "baseColorTexture": {
          "index": 0
        },
        "metallicFactor": 0.0,
        "roughnessFactor": 0.0
      }
    },
    {
      "doubleSided": true,
      "extensions": {
        "KHR_materials_specular": {
          "specularColorFactor": [
            1.0,
            1.0,
            1.0
          ],
          "specularFactor": 0.0
        }
      },
      "name": "Standa3",
      "pbrMetallicRoughness": {
        "baseColorTexture": {
          "index": 2
        },
        "metallicFactor": 0.0,
        "roughnessFactor": 0.0
      }
    },
    {
      "doubleSided": true,
      "extensions": {
        "KHR_materials_specular": {
          "specularColorFactor": [
            1.0,
            1.0,
            1.0
          ],
          "specularFactor": 1.0,
          "specularTexture": {
            "index": 4
          }
        }
      },
      "name": "Standa4",
      "pbrMetallicRoughness": {
        "baseColorTexture": {
          "index": 3
        },
        "metallicFactor": 0.0,
        "roughnessFactor": 0.0
      }
    },
    {
      "doubleSided": true,
      "extensions": {
        "KHR_materials_specular": {
          "specularColorFactor": [
            1.0,
            1.0,
            1.0
          ],
          "specularFactor": 0.17523862929867975,
          "specularTexture": {
            "index": 6
          }
        }
      },
      "name": "grey",
      "pbrMetallicRoughness": {
        "baseColorFactor": [
          0.6445733929855786,
          0.6445733929855786,
          0.6445733929855786,
          1.0
        ],
        "baseColorTexture": {
          "index": 5
        },
        "metallicFactor": 0.0,
        "roughnessFactor": 0.3154295327376236
      }
    }
  ],
  "meshes": [
    {
      "name": "Object_0",
      "primitives": [
        {
          "attributes": {
            "NORMAL": 1,
            "POSITION": 0,
            "TEXCOORD_0": 2,
            "TEXCOORD_1": 3,
            "TEXCOORD_2": 4
          },
          "indices": 5,
          "material": 0,
          "mode": 4
        }
      ]
    },
    {
      "name": "Object_1",
      "primitives": [
        {
          "attributes": {
            "NORMAL": 7,
            "POSITION": 6,
            "TEXCOORD_0": 8,
            "TEXCOORD_1": 9
          },
          "indices": 10,
          "material": 1,
          "mode": 4
        }
      ]
    },
    {
      "name": "Object_2",
      "primitives": [
        {
          "attributes": {
            "NORMAL": 12,
            "POSITION": 11,
            "TEXCOORD_0": 13,
            "TEXCOORD_1": 14,
            "TEXCOORD_2": 15
          },
          "indices": 16,
          "material": 2,
          "mode": 4
        }
      ]
    },
    {
      "name": "Object_3",
      "primitives": [
        {
          "attributes": {
            "NORMAL": 18,
            "POSITION": 17,
            "TEXCOORD_0": 19,
            "TEXCOORD_1": 20
          },
          "indices": 21,
          "material": 3,
          "mode": 4
        }
      ]
    }
  ],
  "nodes": [
    {
      "children": [
        1
      ],
      "matrix": [
        1.0,
        0.0,
        0.0,
        0.0,
        0.0,
        2.220446049250313e-16,
        -1.0,
        0.0,
        0.0,
        1.0,
        2.220446049250313e-16,
        0.0,
        0.0,
        0.0,
        0.0,
        1.0
      ],
      "name": "Sketchfab_model"
    },
    {
      "children": [
        2
      ],
      "name": "root"
    },
    {
      "children": [
        3
      ],
      "matrix": [
        1.0,
        0.0,
        0.0,
        0.0,
        0.0,
        2.220446049250313e-16,
        1.0,
        0.0,
        0.0,
        -1.0,
        2.220446049250313e-16,
        0.0,
        0.0,
        0.0,
        0.0,
        1.0
      ],
      "name": "GLTF_SceneRootNode"
    },
    {
      "children": [
        4,
        5,
        6,
        7
      ],
      "matrix": [
        1.0,
        0.0,
        0.0,
        0.0,
        0.0,
        1.0,
        0.0,
        0.0,
        0.0,
        0.0,
        1.0,
        0.0,
        -23.095844268798828,
        0.0,
        55.0845832824707,
        1.0
      ],
      "name": "5tietazhka2_0"
    },
    {
      "mesh": 0,
      "name": "Object_4"
    },
    {
      "mesh": 1,
      "name": "Object_5"
    },
    {
      "mesh": 2,
      "name": "Object_6"
    },
    {
      "mesh": 3,
      "name": "Object_7"
    }
  ],
  "samplers": [
    {
      "magFilter": 9729,
      "minFilter": 9987,
      "wrapS": 10497,
      "wrapT": 10497
    }
  ],
  "scene": 0,
  "scenes": [
    {
      "name": "Sketchfab_Scene",
      "nodes": [
        0
      ]
    }
  ],
  "textures": [
    {
      "sampler": 0,
      "source": 0
    },
    {
      "sampler": 0,
      "source": 1
    },
    {
      "sampler": 0,
      "source": 2
    },
    {
      "sampler": 0,
      "source": 3
    },
    {
      "sampler": 0,
      "source": 4
    },
    {
      "sampler": 0,
      "source": 5
    },
    {
      "sampler": 0,
      "source": 6
    }
  ]
}
