{
  "accessors": [
    {
      "bufferView": 2,
      "componentType": 5126,
      "count": 1148,
      "max": [
        6.09389591217041,
        9.857086181640625,
        6.3746538162231445
      ],
      "min": [
        -5.8980021476745605,
        1.568071722984314,
        -6.072090148925781
      ],
      "type": "VEC3"
    },
    {
      "bufferView": 2,
      "byteOffset": 13776,
      "componentType": 5126,
      "count": 1148,
      "max": [
        0.8514524698257446,
        1.0,
        0.8776057362556458
      ],
      "min": [
        -0.9163206815719604,
        0.2759110629558563,
        -0.8278950452804565
      ],
      "type": "VEC3"
    },
    {
      "bufferView": 1,
      "componentType": 5126,
      "count": 1148,
      "max": [
        0.7649999856948853,
        1.0
      ],
      "min": [
        0.23500001430511475,
        0.0
      ],
      "type": "VEC2"
    },
    {
      "bufferView": 0,
      "componentType": 5125,
      "count": 1722,
      "type": "SCALAR"
    },
    {
      "bufferView": 2,
      "byteOffset": 27552,
      "componentType": 5126,
      "count": 16684,
      "max": [
        4.691869735717773,
        8.650656700134277,
        4.995214462280273
      ],
      "min": [
        -4.471203804016113,
        0.0,
        -4.626338481903076
      ],
      "type": "VEC3"
    },
    {
      "bufferView": 2,
      "byteOffset": 227760,
      "componentType": 5126,
      "count": 16684,
      "max": [
        0.9999243021011353,
        0.9977589845657349,
        0.9999997615814209
      ],
      "min": [
        -0.999945342540741,
        -0.9984819889068604,
        -0.9999967813491821
      ],
      "type": "VEC3"
    },
    {
      "bufferView": 1,
      "byteOffset": 9184,
      "componentType": 5126,
      "count": 16684,
      "max": [
        5.2254791259765625,
        5.5911664962768555
      ],
      "min": [
        -4.21232795715332,
        -4.528550148010254
      ],
      "type": "VEC2"
    },
    {
      "bufferView": 0,
      "byteOffset": 6888,
      "componentType": 5125,
      "count": 41760,
      "type": "SCALAR"
    },
    {
      "bufferView": 2,
      "byteOffset": 427968,
      "componentType": 5126,
      "count": 1148,
      "max": [
        6.09389591217041,
        9.857086181640625,
        6.3746538162231445
      ],
      "min": [
        -5.8980021476745605,
        1.568071722984314,
        -6.072090148925781
      ],
      "type": "VEC3"
    },
    {
      "bufferView": 2,
      "byteOffset": 441744,
      "componentType": 5126,
      "count": 1148,
      "max": [
        0.8514524698257446,
        1.0,
        0.8776057362556458
      ],
      "min": [
        -0.9163206815719604,
        0.2759110629558563,
        -0.8278950452804565
      ],
      "type": "VEC3"
    },
    {
      "bufferView": 1,
      "byteOffset": 142656,
      "componentType": 5126,
      "count": 1148,
      "max": [
        0.7649999856948853,
        1.0
      ],
      "min": [
        0.23500001430511475,
        0.0
      ],
      "type": "VEC2"
    },
    {
      "bufferView": 0,
      "byteOffset": 173928,
      "componentType": 5125,
      "count": 1722,
      "type": "SCALAR"
    },
    {
      "bufferView": 2,
      "byteOffset": 455520,
      "componentType": 5126,
      "count": 16684,
      "max": [
        4.691869735717773,
        8.650656700134277,
        4.995214462280273
      ],
      "min": [
        -4.471203804016113,
        0.0,
        -4.626338481903076
      ],
      "type": "VEC3"
    },
    {
      "bufferView": 2,
      "byteOffset": 655728,
      "componentType": 5126,
      "count": 16684,
      "max": [
        0.9999243021011353,
        0.9977589845657349,
        0.9999997615814209
      ],
      "min": [
        -0.999945342540741,
        -0.9984819889068604,
        -0.9999967813491821
      ],
      "type": "VEC3"
    },
    {
      "bufferView": 1,
      "byteOffset": 151840,
      "componentType": 5126,
      "count": 16684,
      "max": [
        5.2254791259765625,
        5.5911664962768555
      ],
      "min": [
        -4.21232795715332,
        -4.528550148010254
      ],
      "type": "VEC2"
    },
    {
      "bufferView": 0,
      "byteOffset": 180816,
      "componentType": 5125,
      "count": 41760,
      "type": "SCALAR"
    },
    {
      "bufferView": 2,
      "byteOffset": 855936,
      "componentType": 5126,
      "count": 1148,
      "max": [
        6.09389591217041,
        9.857086181640625,
        6.3746538162231445
      ],
      "min": [
        -5.8980021476745605,
        1.568071722984314,
        -6.072090148925781
      ],
      "type": "VEC3"
    },
    {
      "bufferView": 2,
      "byteOffset": 869712,
      "componentType": 5126,
      "count": 1148,
      "max": [
        0.8514524698257446,
        1.0,
        0.8776057362556458
      ],
      "min": [
        -0.9163206815719604,
        0.2759110629558563,
        -0.8278950452804565
      ],
      "type": "VEC3"
    },
    {
      "bufferView": 1,
      "byteOffset": 285312,
      "componentType": 5126,
      "count": 1148,
      "max": [
        0.7649999856948853,
        1.0
      ],
      "min": [
        0.23500001430511475,
        0.0
      ],
      "type": "VEC2"
    },
    {
      "bufferView": 0,
      "byteOffset": 347856,
      "componentType": 5125,
      "count": 1722,
      "type": "SCALAR"
    },
    {
      "bufferView": 2,
      "byteOffset": 883488,
      "componentType": 5126,
      "count": 16684,
      "max": [
        4.691869735717773,
        8.650656700134277,
        4.995214462280273
      ],
      "min": [
        -4.471203804016113,
        0.0,
        -4.626338481903076
      ],
      "type": "VEC3"
    },
    {
      "bufferView": 2,
      "byteOffset": 1083696,
      "componentType": 5126,
      "count": 16684,
      "max": [
        0.9999243021011353,
        0.9977589845657349,
        0.9999997615814209
      ],
      "min": [
        -0.999945342540741,
        -0.9984819889068604,
        -0.9999967813491821
      ],
      "type": "VEC3"
    },
    {
      "bufferView": 1,
      "byteOffset": 294496,
      "componentType": 5126,
      "count": 16684,
      "max": [
        5.2254791259765625,
        5.5911664962768555
      ],
      "min": [
        -4.21232795715332,
        -4.528550148010254
      ],
      "type": "VEC2"
    },
    {
      "bufferView": 0,
      "byteOffset": 354744,
      "componentType": 5125,
      "count": 41760,
      "type": "SCALAR"
    },
    {
      "bufferView": 2,
      "byteOffset": 1283904,
      "componentType": 5126,
      "count": 17859,
      "max": [
        1.0,
        1.4901994466781616,
        2.7873923778533936
      ],
      "min": [
        -1.0,
        -0.6608174443244934,
        -1.0
      ],
      "type": "VEC3"
    },
    {
      "bufferView": 2,
      "byteOffset": 1498212,
      "componentType": 5126,
      "count": 17859,
      "max": [
        1.0,
        1.0,
        1.0
      ],
      "min": [
        -1.0,
        -1.0,
        -1.0
      ],
      "type": "VEC3"
    },
    {
      "bufferView": 3,
      "componentType": 5126,
      "count": 17859,
      "max": [
        1.0,
        1.0,
        1.0,
        -1.0
      ],
      "min": [
        -1.0,
        -1.0,
        -1.0,
        -1.0
      ],
      "type": "VEC4"
    },
    {
      "bufferView": 1,
      "byteOffset": 427968,
      "componentType": 5126,
      "count": 17859,
      "max": [
        0.966439425945282,
        1.0
      ],
      "min": [
        0.0001698080013738945,
        1.1920928955078125e-07
      ],
      "type": "VEC2"
    },
    {
      "bufferView": 1,
      "byteOffset": 570840,
      "componentType": 5126,
      "count": 17859,
      "max": [
        0.966439425945282,
        1.0
      ],
      "min": [
        0.0001698080013738945,
        1.1920928955078125e-07
      ],
      "type": "VEC2"
    },
    {
      "bufferView": 1,
      "byteOffset": 713712,
      "componentType": 5126,
      "count": 17859,
      "max": [
        0.966439425945282,
        1.0
      ],
      "min": [
        0.0001698080013738945,
        1.1920928955078125e-07
      ],
      "type": "VEC2"
    },
    {
      "bufferView": 1,
      "byteOffset": 856584,
      "componentType": 5126,
      "count": 17859,
      "max": [
        0.966439425945282,
        1.0
      ],
      "min": [
        0.0001698080013738945,
        1.1920928955078125e-07
      ],
      "type": "VEC2"
    },
    {
      "bufferView": 0,
      "byteOffset": 521784,
      "componentType": 5125,
      "count": 37374,
      "type": "SCALAR"
    },
    {
      "bufferView": 2,
      "byteOffset": 1712520,
      "componentType": 5126,
      "count": 26550,
      "max": [
        1.0006771087646484,
        0.13966266810894012,
        3.2340035438537598
      ],
      "min": [
        -1.0008225440979004,
        -0.13246600329875946,
        -1.0006306171417236
      ],
      "type": "VEC3"
    },
    {
      "bufferView": 2,
      "byteOffset": 2031120,
      "componentType": 5126,
      "count": 26550,
      "max": [
        0.9994282722473145,
        0.9999973773956299,
        0.982096254825592
      ],
      "min": [
        -0.9998586177825928,
        -0.25429633259773254,
        -0.9975641965866089
      ],
      "type": "VEC3"
    },
    {
      "bufferView": 1,
      "byteOffset": 999456,
      "componentType": 5126,
      "count": 26550,
      "max": [
        0.8545011281967163,
        1.2501235008239746
      ],
      "min": [
        0.14514467120170593,
        -0.25019359588623047
      ],
      "type": "VEC2"
    },
    {
      "bufferView": 1,
      "byteOffset": 1211856,
      "componentType": 5126,
      "count": 26550,
      "max": [
        0.8545011281967163,
        1.2501235008239746
      ],
      "min": [
        0.14514467120170593,
        -0.25019359588623047
      ],
      "type": "VEC2"
    },
    {
      "bufferView": 1,
      "byteOffset": 1424256,
      "componentType": 5126,
      "count": 26550,
      "max": [
        0.8545011281967163,
        1.2501235008239746
      ],
      "min": [
        0.14514467120170593,
        -0.25019359588623047
      ],
      "type": "VEC2"
    },
    {
      "bufferView": 1,
      "byteOffset": 1636656,
      "componentType": 5126,
      "count": 26550,
      "max": [
        0.8545011281967163,
        1.2501235008239746
      ],
      "min": [
        0.14514467120170593,
        -0.25019359588623047
      ],
      "type": "VEC2"
    },
    {
      "bufferView": 1,
      "byteOffset": 1849056,
      "componentType": 5126,
      "count": 26550,
      "max": [
        0.8545011281967163,
        1.2501235008239746
      ],
      "min": [
        0.14514467120170593,
        -0.25019359588623047
      ],
      "type": "VEC2"
    },
    {
      "bufferView": 0,
      "byteOffset": 671280,
      "componentType": 5125,
      "count": 157284,
      "type": "SCALAR"
    }
  ],
  "asset": {
    "extras": {
      "author": "abhayexe (https://sketchfab.com/abhayexe)",
      "license": "SKETCHFAB Standard (https://sketchfab.com/licenses)",
      "source": "https://sketchfab.com/3d-models/brutalist-building-6152ae20f9334de581325bbf737eb351",
      "title": "Brutalist Building"
    },
    "generator": "Sketchfab-17.15.0",
    "version": "2.0"
  },
  "bufferViews": [
    {
      "buffer": 0,
      "byteLength": 1300416,
      "name": "floatBufferViews",
      "target": 34963
    },
    {
      "buffer": 0,
      "byteLength": 2061456,
      "byteOffset": 1300416,
      "byteStride": 8,
      "name": "floatBufferViews",
      "target": 34962
    },
    {
      "buffer": 0,
      "byteLength": 2349720,
      "byteOffset": 3361872,
      "byteStride": 12,
      "name": "floatBufferViews",
      "target": 34962
    },
    {
      "buffer": 0,
      "byteLength": 285744,
      "byteOffset": 5711592,
      "byteStride": 16,
      "name": "floatBufferViews",
      "target": 34962
    }
  ],
  "buffers": [
    {
      "byteLength": 5997336,
      "uri": "scene.bin"
    }
  ],
  "extensionsUsed": [
    "KHR_materials_specular"
  ],
  "images": [
    {
      "uri": "textures/Material.001_baseColor.png"
    },
    {
      "uri": "textures/Material.002_baseColor.jpeg"
    },
    {
      "uri": "textures/Material_baseColor.jpeg"
    },
    {
      "uri": "textures/Material_metallicRoughness.png"
    },
    {
      "uri": "textures/Material_normal.jpeg"
    },
    {
      "uri": "textures/Rugged_Rock_Strata_Surface_baseColor.jpeg"
    },
    {
      "uri": "textures/Rugged_Rock_Strata_Surface_metallicRoughness.png"
    },
    {
      "uri": "textures/Rugged_Rock_Strata_Surface_specularf0.png"
    }
  ],
  "materials": [
    {
      "alphaMode": "BLEND",
      "doubleSided": true,
      "name": "Material.001",
      "pbrMetallicRoughness": {
        "baseColorTexture": {
          "index": 0
        },
        "metallicFactor": 0.0,
        "roughnessFactor": 0.5
      }
    },
    {
      "doubleSided": true,
      "name": "Material.002",
      "pbrMetallicRoughness": {
        "baseColorTexture": {
          "index": 1
        },
        "metallicFactor": 0.0,
        "roughnessFactor": 0.5
      }
    },
    {
      "doubleSided": true,
      "name": "Material",
      "normalTexture": {
        "index": 4
      },
      "pbrMetallicRoughness": {
        "baseColorTexture": {
          "index": 2
        },
        "metallicRoughnessTexture": {
          "index": 3
        }
      }
    },
    {
      "doubleSided": true,
      "extensions": {
        "KHR_materials_specular": {
          "specularColorFactor": [
            1.0,
            1.0,
            1.0
          ],
          "specularFactor": 1.0,
          "specularTexture": {
            "index": 7
          }
        }
      },
      "name": "Rugged_Rock_Strata_Surface",
      "pbrMetallicRoughness": {
        "baseColorTexture": {
          "index": 5
        },
        "metallicFactor": 0.0,
        "metallicRoughnessTexture": {
          "index": 6
        }
      }
    }
  ],
  "meshes": [
    {
      "name": "Object_0",
      "primitives": [
        {
          "attributes": {
            "NORMAL": 1,
            "POSITION": 0,
            "TEXCOORD_0": 2
          },
          "indices": 3,
          "material": 0,
          "mode": 4
        }
      ]
    },
    {
      "name": "Object_1",
      "primitives": [
        {
          "attributes": {
            "NORMAL": 5,
            "POSITION": 4,
            "TEXCOORD_0": 6
          },
          "indices": 7,
          "material": 1,
          "mode": 4
        }
      ]
    },
    {
      "name": "Object_2",
      "primitives": [
        {
          "attributes": {
            "NORMAL": 9,
            "POSITION": 8,
            "TEXCOORD_0": 10
          },
          "indices": 11,
          "material": 0,
          "mode": 4
        }
      ]
    },
    {
      "name": "Object_3",
      "primitives": [
        {
          "attributes": {
            "NORMAL": 13,
            "POSITION": 12,
            "TEXCOORD_0": 14
          },
          "indices": 15,
          "material": 1,
          "mode": 4
        }
      ]
    },
    {
      "name": "Object_4",
      "primitives": [
        {
          "attributes": {
            "NORMAL": 17,
            "POSITION": 16,
            "TEXCOORD_0": 18
          },
          "indices": 19,
          "material": 0,
          "mode": 4
        }
      ]
    },
    {
      "name": "Object_5",
      "primitives": [
        {
          "attributes": {
            "NORMAL": 21,
            "POSITION": 20,
            "TEXCOORD_0": 22
          },
          "indices": 23,
          "material": 1,
          "mode": 4
        }
      ]
    },
    {
      "name": "Object_6",
      "primitives": [
        {
          "attributes": {
            "NORMAL": 25,
            "POSITION": 24,
            "TANGENT": 26,
            "TEXCOORD_0": 27,
            "TEXCOORD_1": 28,
            "TEXCOORD_2": 29,
            "TEXCOORD_3": 30
          },
          "indices": 31,
          "material": 2,
          "mode": 4
        }
      ]
    },
    {
      "name": "Object_7",
      "primitives": [
        {
          "attributes": {
            "NORMAL": 33,
            "POSITION": 32,
            "TEXCOORD_0": 34,
            "TEXCOORD_1": 35,
            "TEXCOORD_2": 36,
            "TEXCOORD_3": 37,
            "TEXCOORD_4": 38
          },
          "indices": 39,
          "material": 3,
          "mode": 4
        }
      ]
    }
  ],
  "nodes": [
    {
      "children": [
        1
      ],
      "matrix": [
        1.0,
        0.0,
        0.0,
        0.0,
        0.0,
        2.220446049250313e-16,
        -1.0,
        0.0,
        0.0,
        1.0,
        2.220446049250313e-16,
        0.0,
        0.0,
        0.0,
        0.0,
        1.0
      ],
      "name": "Sketchfab_model"
    },
    {
      "children": [
        2
      ],
      "name": "root"
    },
    {
      "children": [
        3,
        6,
        9,
        12,
        14
      ],
      "matrix": [
        1.0,
        0.0,
        0.0,
        0.0,
        0.0,
        2.220446049250313e-16,
        1.0,
        0.0,
        0.0,
        -1.0,
        2.220446049250313e-16,
        0.0,
        0.0,
        0.0,
        0.0,
        1.0
      ],
      "name": "GLTF_SceneRootNode"
    },
    {
      "children": [
        4,
        5
      ],
      "matrix": [
        0.5320618152618408,
        0.0,
        0.0,
        0.0,
        0.0,
        0.5320618152618408,
        0.0,
        0.0,
        0.0,
        0.0,
        0.5320618152618408,
        0.0,
        -4.584264755249023,
        0.11223126202821732,
        0.29859137535095215,
        1.0
      ],
      "name": "leaves_0"
    },
    {
      "mesh": 0,
      "name": "Object_4"
    },
    {
      "mesh": 1,
      "name": "Object_5"
    },
    {
      "children": [
        7,
        8
      ],
      "matrix": [
        0.4160562370134111,
        0.0,
        0.37872233512284187,
        0.0,
        0.0,
        0.5626130700111389,
        0.0,
        0.0,
        -0.37872233512284187,
        0.0,
        0.4160562370134111,
        0.0,
        4.517409324645996,
        0.6461111903190613,
        4.05305290222168,
        1.0
      ],
      "name": "leaves.001_1"
    },
    {
      "mesh": 2,
      "name": "Object_7"
    },
    {
      "mesh": 3,
      "name": "Object_8"
    },
    {
      "children": [
        10,
        11
      ],
      "matrix": [
        -0.07098083538275816,
        -0.09079174688997063,
        0.5506831931189576,
        0.0,
        0.04568378318475458,
        0.5523109917415787,
        0.0969485786524013,
        0.0,
        -0.5562446520040959,
        0.05694638892626322,
        -0.06230887082718557,
        0.0,
        4.7436299324035645,
        0.9717696905136108,
        14.902076721191406,
        1.0
      ],
      "name": "leaves.002_2"
    },
    {
      "mesh": 4,
      "name": "Object_10"
    },
    {
      "mesh": 5,
      "name": "Object_11"
    },
    {
      "children": [
        13
      ],
      "matrix": [
        6.099999904632568,
        0.0,
        0.0,
        0.0,
        0.0,
        6.099999904632568,
        0.0,
        0.0,
        0.0,
        0.0,
        6.099999904632568,
        0.0,
        0.0,
        4.0309858322143555,
        0.0,
        1.0
      ],
      "name": "Cylinder_3"
    },
    {
      "mesh": 6,
      "name": "Object_13"
    },
    {
      "children": [
        15
      ],
      "matrix": [
        5.822554588317871,
        0.0,
        0.0,
        0.0,
        0.0,
        5.822554588317871,
        0.0,
        0.0,
        0.0,
        0.0,
        5.822554588317871,
        0.0,
        0.0,
        0.37168362736701965,
        0.0,
        1.0
      ],
      "name": "Plane_4"
    },
    {
      "mesh": 7,
      "name": "Object_15"
    }
  ],
  "samplers": [
    {
      "magFilter": 9729,
      "minFilter": 9987,
      "wrapS": 10497,
      "wrapT": 10497
    }
  ],
  "scene": 0,
  "scenes": [
    {
      "name": "Sketchfab_Scene",
      "nodes": [
        0
      ]
    }
  ],
  "textures": [
    {
      "sampler": 0,
      "source": 0
    },
    {
      "sampler": 0,
      "source": 1
    },
    {
      "sampler": 0,
      "source": 2
    },
    {
      "sampler": 0,
      "source": 3
    },
    {
      "sampler": 0,
      "source": 4
    },
    {
      "sampler": 0,
      "source": 5
    },
    {
      "sampler": 0,
      "source": 6
    },
    {
      "sampler": 0,
      "source": 7
    }
  ]
}
