{
  "accessors": [
    {
      "bufferView": 2,
      "componentType": 5126,
      "count": 65532,
      "max": [
        1.9147285223007202,
        3.67584228515625,
        1.6343443393707275
      ],
      "min": [
        -1.3232115507125854,
        -2.4339799880981445,
        -1.0635817050933838
      ],
      "type": "VEC3"
    },
    {
      "bufferView": 2,
      "byteOffset": 786384,
      "componentType": 5126,
      "count": 65532,
      "max": [
        0.999998927116394,
        0.9989761710166931,
        0.9999831914901733
      ],
      "min": [
        -0.9999796152114868,
        -0.9999997615814209,
        -0.9999961853027344
      ],
      "type": "VEC3"
    },
    {
      "bufferView": 3,
      "componentType": 5126,
      "count": 65532,
      "max": [
        1.0,
        0.9999998211860657,
        0.9999750852584839,
        1.0
      ],
      "min": [
        -0.9999990463256836,
        -0.9999987483024597,
        -0.9999997615814209,
        -1.0
      ],
      "type": "VEC4"
    },
    {
      "bufferView": 1,
      "componentType": 5126,
      "count": 65532,
      "max": [
        0.9954153299331665,
        1.0
      ],
      "min": [
        -2.659105380331539e-09,
        0.00395578145980835
      ],
      "type": "VEC2"
    },
    {
      "bufferView": 1,
      "byteOffset": 524256,
      "componentType": 5126,
      "count": 65532,
      "max": [
        2.42703914642334,
        3.0066046714782715
      ],
      "min": [
        -1.1352858543395996,
        -3.0984063148498535
      ],
      "type": "VEC2"
    },
    {
      "bufferView": 1,
      "byteOffset": 1048512,
      "componentType": 5126,
      "count": 65532,
      "max": [
        0.5070843696594238,
        1.0
      ],
      "min": [
        -6.031597443723058e-10,
        0.12810194492340088
      ],
      "type": "VEC2"
    },
    {
      "bufferView": 0,
      "componentType": 5125,
      "count": 246363,
      "type": "SCALAR"
    },
    {
      "bufferView": 2,
      "byteOffset": 1572768,
      "componentType": 5126,
      "count": 65532,
      "max": [
        1.9110207557678223,
        3.6678218841552734,
        1.629143476486206
      ],
      "min": [
        -1.7207224369049072,
        -2.4290571212768555,
        -1.012283205986023
      ],
      "type": "VEC3"
    },
    {
      "bufferView": 2,
      "byteOffset": 2359152,
      "componentType": 5126,
      "count": 65532,
      "max": [
        0.9999980926513672,
        0.9999796152114868,
        0.999998927116394
      ],
      "min": [
        -0.9999942779541016,
        -0.9999996423721313,
        -0.9999986886978149
      ],
      "type": "VEC3"
    },
    {
      "bufferView": 3,
      "byteOffset": 1048512,
      "componentType": 5126,
      "count": 65532,
      "max": [
        1.0,
        1.0,
        0.9999122619628906,
        1.0
      ],
      "min": [
        -1.0,
        -1.0,
        -1.0,
        -1.0
      ],
      "type": "VEC4"
    },
    {
      "bufferView": 1,
      "byteOffset": 1572768,
      "componentType": 5126,
      "count": 65532,
      "max": [
        0.9954192638397217,
        1.0
      ],
      "min": [
        5.117900547801923e-10,
        0.0034530162811279297
      ],
      "type": "VEC2"
    },
    {
      "bufferView": 1,
      "byteOffset": 2097024,
      "componentType": 5126,
      "count": 65532,
      "max": [
        2.4278512001037598,
        3.0064029693603516
      ],
      "min": [
        -1.1954519748687744,
        -3.0837912559509277
      ],
      "type": "VEC2"
    },
    {
      "bufferView": 1,
      "byteOffset": 2621280,
      "componentType": 5126,
      "count": 65532,
      "max": [
        0.5074774622917175,
        0.9945123791694641
      ],
      "min": [
        0.010705667547881603,
        0.17122167348861694
      ],
      "type": "VEC2"
    },
    {
      "bufferView": 0,
      "byteOffset": 985452,
      "componentType": 5125,
      "count": 237369,
      "type": "SCALAR"
    },
    {
      "bufferView": 2,
      "byteOffset": 3145536,
      "componentType": 5126,
      "count": 65532,
      "max": [
        0.7727487087249756,
        3.676222324371338,
        0.8667945265769958
      ],
      "min": [
        -1.4987726211547852,
        -2.429163932800293,
        -1.0684776306152344
      ],
      "type": "VEC3"
    },
    {
      "bufferView": 2,
      "byteOffset": 3931920,
      "componentType": 5126,
      "count": 65532,
      "max": [
        0.999976396560669,
        0.999976634979248,
        0.9999986886978149
      ],
      "min": [
        -0.9999939203262329,
        -0.9999785423278809,
        -0.9999973773956299
      ],
      "type": "VEC3"
    },
    {
      "bufferView": 3,
      "byteOffset": 2097024,
      "componentType": 5126,
      "count": 65532,
      "max": [
        0.9999983906745911,
        0.999998927116394,
        0.9999821186065674,
        1.0
      ],
      "min": [
        -1.0,
        -1.0,
        -0.9999878406524658,
        -1.0
      ],
      "type": "VEC4"
    },
    {
      "bufferView": 1,
      "byteOffset": 3145536,
      "componentType": 5126,
      "count": 65532,
      "max": [
        0.9954288005828857,
        1.0
      ],
      "min": [
        1.7678021269063038e-09,
        0.002827167510986328
      ],
      "type": "VEC2"
    },
    {
      "bufferView": 1,
      "byteOffset": 3669792,
      "componentType": 5126,
      "count": 65532,
      "max": [
        1.5154013633728027,
        3.0065999031066895
      ],
      "min": [
        -0.8818072080612183,
        -3.0987863540649414
      ],
      "type": "VEC2"
    },
    {
      "bufferView": 1,
      "byteOffset": 4194048,
      "componentType": 5126,
      "count": 65532,
      "max": [
        0.5079150199890137,
        0.9684439897537231
      ],
      "min": [
        0.0010062985820695758,
        5.960464477539063e-08
      ],
      "type": "VEC2"
    },
    {
      "bufferView": 0,
      "byteOffset": 1934928,
      "componentType": 5125,
      "count": 225294,
      "type": "SCALAR"
    },
    {
      "bufferView": 2,
      "byteOffset": 4718304,
      "componentType": 5126,
      "count": 65532,
      "max": [
        1.9197120666503906,
        3.6777772903442383,
        1.6408908367156982
      ],
      "min": [
        -1.7178690433502197,
        -2.4303526878356934,
        -0.8807023763656616
      ],
      "type": "VEC3"
    },
    {
      "bufferView": 2,
      "byteOffset": 5504688,
      "componentType": 5126,
      "count": 65532,
      "max": [
        0.999998927116394,
        0.9999983310699463,
        0.999998927116394
      ],
      "min": [
        -0.9999935626983643,
        -1.0,
        -0.9999709129333496
      ],
      "type": "VEC3"
    },
    {
      "bufferView": 3,
      "byteOffset": 3145536,
      "componentType": 5126,
      "count": 65532,
      "max": [
        1.0,
        1.0,
        1.0,
        1.0
      ],
      "min": [
        -0.9999998807907104,
        -1.0,
        -0.9999998807907104,
        -1.0
      ],
      "type": "VEC4"
    },
    {
      "bufferView": 1,
      "byteOffset": 4718304,
      "componentType": 5126,
      "count": 65532,
      "max": [
        0.9954178333282471,
        1.0
      ],
      "min": [
        -4.651642271369383e-08,
        9.709596633911133e-05
      ],
      "type": "VEC2"
    },
    {
      "bufferView": 1,
      "byteOffset": 5242560,
      "componentType": 5126,
      "count": 65532,
      "max": [
        2.42703914642334,
        3.0064029693603516
      ],
      "min": [
        -1.2001689672470093,
        -3.0976366996765137
      ],
      "type": "VEC2"
    },
    {
      "bufferView": 1,
      "byteOffset": 5766816,
      "componentType": 5126,
      "count": 65532,
      "max": [
        0.507531464099884,
        1.0
      ],
      "min": [
        0.009791902266442776,
        0.1663672924041748
      ],
      "type": "VEC2"
    },
    {
      "bufferView": 0,
      "byteOffset": 2836104,
      "componentType": 5125,
      "count": 150378,
      "type": "SCALAR"
    },
    {
      "bufferView": 2,
      "byteOffset": 6291072,
      "componentType": 5126,
      "count": 65533,
      "max": [
        1.150499939918518,
        3.6770882606506348,
        0.866929292678833
      ],
      "min": [
        -0.33803874254226685,
        -2.432481288909912,
        -0.8809007406234741
      ],
      "type": "VEC3"
    },
    {
      "bufferView": 2,
      "byteOffset": 7077468,
      "componentType": 5126,
      "count": 65533,
      "max": [
        0.9999692440032959,
        0.9999421238899231,
        0.9999942779541016
      ],
      "min": [
        -0.9999996423721313,
        -0.9999854564666748,
        -0.9999957084655762
      ],
      "type": "VEC3"
    },
    {
      "bufferView": 3,
      "byteOffset": 4194048,
      "componentType": 5126,
      "count": 65533,
      "max": [
        0.9999992251396179,
        1.0,
        0.999992847442627,
        1.0
      ],
      "min": [
        -1.0,
        -1.0,
        -0.9999775290489197,
        -1.0
      ],
      "type": "VEC4"
    },
    {
      "bufferView": 1,
      "byteOffset": 6291072,
      "componentType": 5126,
      "count": 65533,
      "max": [
        0.9954330325126648,
        1.0
      ],
      "min": [
        7.1952666047536695e-09,
        0.0
      ],
      "type": "VEC2"
    },
    {
      "bufferView": 1,
      "byteOffset": 6815336,
      "componentType": 5126,
      "count": 65533,
      "max": [
        1.6673305034637451,
        3.0099172592163086
      ],
      "min": [
        -0.3636881709098816,
        -3.0996522903442383
      ],
      "type": "VEC2"
    },
    {
      "bufferView": 1,
      "byteOffset": 7339600,
      "componentType": 5126,
      "count": 65533,
      "max": [
        0.5078060030937195,
        0.9864398837089539
      ],
      "min": [
        -6.031597443723058e-10,
        0.0517536997795105
      ],
      "type": "VEC2"
    },
    {
      "bufferView": 0,
      "byteOffset": 3437616,
      "componentType": 5125,
      "count": 113430,
      "type": "SCALAR"
    },
    {
      "bufferView": 2,
      "byteOffset": 7863864,
      "componentType": 5126,
      "count": 65532,
      "max": [
        0.11528709530830383,
        3.678736686706543,
        1.0771836042404175
      ],
      "min": [
        -1.7207224369049072,
        -2.432481288909912,
        -1.0684776306152344
      ],
      "type": "VEC3"
    },
    {
      "bufferView": 2,
      "byteOffset": 8650248,
      "componentType": 5126,
      "count": 65532,
      "max": [
        0.9999830722808838,
        0.9999964237213135,
        0.9999486804008484
      ],
      "min": [
        -0.9999991655349731,
        -1.0,
        -0.9999973773956299
      ],
      "type": "VEC3"
    },
    {
      "bufferView": 3,
      "byteOffset": 5242576,
      "componentType": 5126,
      "count": 65532,
      "max": [
        0.9999996423721313,
        1.0,
        1.0,
        1.0
      ],
      "min": [
        -1.0,
        -1.0,
        -1.0,
        -1.0
      ],
      "type": "VEC4"
    },
    {
      "bufferView": 1,
      "byteOffset": 7863864,
      "componentType": 5126,
      "count": 65532,
      "max": [
        0.9954314827919006,
        1.0
      ],
      "min": [
        6.822034048781234e-10,
        0.0002765655517578125
      ],
      "type": "VEC2"
    },
    {
      "bufferView": 1,
      "byteOffset": 8388120,
      "componentType": 5126,
      "count": 65532,
      "max": [
        1.5198907852172852,
        3.0099172592163086
      ],
      "min": [
        -1.2000921964645386,
        -3.098930835723877
      ],
      "type": "VEC2"
    },
    {
      "bufferView": 1,
      "byteOffset": 8912376,
      "componentType": 5126,
      "count": 65532,
      "max": [
        0.5068015456199646,
        0.920594334602356
      ],
      "min": [
        0.01878560148179531,
        0.09337669610977173
      ],
      "type": "VEC2"
    },
    {
      "bufferView": 0,
      "byteOffset": 3891336,
      "componentType": 5125,
      "count": 129624,
      "type": "SCALAR"
    },
    {
      "bufferView": 2,
      "byteOffset": 9436632,
      "componentType": 5126,
      "count": 58103,
      "max": [
        1.884988784790039,
        3.675447463989258,
        1.5980517864227295
      ],
      "min": [
        -1.7207224369049072,
        -2.4290003776550293,
        -1.060356616973877
      ],
      "type": "VEC3"
    },
    {
      "bufferView": 2,
      "byteOffset": 10133868,
      "componentType": 5126,
      "count": 58103,
      "max": [
        0.9999995231628418,
        0.9998307228088379,
        0.999995231628418
      ],
      "min": [
        -0.9999935626983643,
        -0.9999991655349731,
        -0.9997779726982117
      ],
      "type": "VEC3"
    },
    {
      "bufferView": 3,
      "byteOffset": 6291088,
      "componentType": 5126,
      "count": 58103,
      "max": [
        0.9999997615814209,
        1.0,
        0.9999942183494568,
        1.0
      ],
      "min": [
        -0.9999916553497314,
        -1.0,
        -0.9999999403953552,
        -1.0
      ],
      "type": "VEC4"
    },
    {
      "bufferView": 1,
      "byteOffset": 9436632,
      "componentType": 5126,
      "count": 58103,
      "max": [
        0.9954057335853577,
        1.0
      ],
      "min": [
        -1.9709233356479672e-08,
        0.00045984983444213867
      ],
      "type": "VEC2"
    },
    {
      "bufferView": 1,
      "byteOffset": 9901456,
      "componentType": 5126,
      "count": 58103,
      "max": [
        2.4018192291259766,
        3.0058774948120117
      ],
      "min": [
        -1.2001689672470093,
        -3.0976624488830566
      ],
      "type": "VEC2"
    },
    {
      "bufferView": 1,
      "byteOffset": 10366280,
      "componentType": 5126,
      "count": 58103,
      "max": [
        0.507266640663147,
        1.0
      ],
      "min": [
        0.012833612971007824,
        0.08836245536804199
      ],
      "type": "VEC2"
    },
    {
      "bufferView": 0,
      "byteOffset": 4409832,
      "componentType": 5125,
      "count": 96876,
      "type": "SCALAR"
    }
  ],
  "asset": {
    "extras": {
      "author": "abhayexe (https://sketchfab.com/abhayexe)",
      "license": "SKETCHFAB Standard (https://sketchfab.com/licenses)",
      "source": "https://sketchfab.com/3d-models/giant-scifi-statue-069dd59c2f4a4b08b9649aabc3e4f5e1",
      "title": "Giant Scifi Statue"
    },
    "generator": "Sketchfab-16.82.0",
    "version": "2.0"
  },
  "bufferViews": [
    {
      "buffer": 0,
      "byteLength": 4797336,
      "name": "floatBufferViews",
      "target": 34963
    },
    {
      "buffer": 0,
      "byteLength": 10831104,
      "byteOffset": 4797336,
      "byteStride": 8,
      "name": "floatBufferViews",
      "target": 34962
    },
    {
      "buffer": 0,
      "byteLength": 10831104,
      "byteOffset": 15628440,
      "byteStride": 12,
      "name": "floatBufferViews",
      "target": 34962
    },
    {
      "buffer": 0,
      "byteLength": 7220736,
      "byteOffset": 26459544,
      "byteStride": 16,
      "name": "floatBufferViews",
      "target": 34962
    }
  ],
  "buffers": [
    {
      "byteLength": 33680280,
      "uri": "scene.bin"
    }
  ],
  "images": [
    {
      "uri": "textures/Stone_wall_baseColor.png"
    },
    {
      "uri": "textures/Stone_wall_normal.jpeg"
    }
  ],
  "materials": [
    {
      "doubleSided": true,
      "name": "Stone_wall",
      "normalTexture": {
        "index": 1,
        "texCoord": 1
      },
      "pbrMetallicRoughness": {
        "baseColorTexture": {
          "index": 0
        },
        "metallicFactor": 0.0,
        "roughnessFactor": 0.614545
      }
    }
  ],
  "meshes": [
    {
      "name": "Object_0",
      "primitives": [
        {
          "attributes": {
            "NORMAL": 1,
            "POSITION": 0,
            "TANGENT": 2,
            "TEXCOORD_0": 3,
            "TEXCOORD_1": 4,
            "TEXCOORD_2": 5
          },
          "indices": 6,
          "material": 0,
          "mode": 4
        }
      ]
    },
    {
      "name": "Object_1",
      "primitives": [
        {
          "attributes": {
            "NORMAL": 8,
            "POSITION": 7,
            "TANGENT": 9,
            "TEXCOORD_0": 10,
            "TEXCOORD_1": 11,
            "TEXCOORD_2": 12
          },
          "indices": 13,
          "material": 0,
          "mode": 4
        }
      ]
    },
    {
      "name": "Object_2",
      "primitives": [
        {
          "attributes": {
            "NORMAL": 15,
            "POSITION": 14,
            "TANGENT": 16,
            "TEXCOORD_0": 17,
            "TEXCOORD_1": 18,
            "TEXCOORD_2": 19
          },
          "indices": 20,
          "material": 0,
          "mode": 4
        }
      ]
    },
    {
      "name": "Object_3",
      "primitives": [
        {
          "attributes": {
            "NORMAL": 22,
            "POSITION": 21,
            "TANGENT": 23,
            "TEXCOORD_0": 24,
            "TEXCOORD_1": 25,
            "TEXCOORD_2": 26
          },
          "indices": 27,
          "material": 0,
          "mode": 4
        }
      ]
    },
    {
      "name": "Object_4",
      "primitives": [
        {
          "attributes": {
            "NORMAL": 29,
            "POSITION": 28,
            "TANGENT": 30,
            "TEXCOORD_0": 31,
            "TEXCOORD_1": 32,
            "TEXCOORD_2": 33
          },
          "indices": 34,
          "material": 0,
          "mode": 4
        }
      ]
    },
    {
      "name": "Object_5",
      "primitives": [
        {
          "attributes": {
            "NORMAL": 36,
            "POSITION": 35,
            "TANGENT": 37,
            "TEXCOORD_0": 38,
            "TEXCOORD_1": 39,
            "TEXCOORD_2": 40
          },
          "indices": 41,
          "material": 0,
          "mode": 4
        }
      ]
    },
    {
      "name": "Object_6",
      "primitives": [
        {
          "attributes": {
            "NORMAL": 43,
            "POSITION": 42,
            "TANGENT": 44,
            "TEXCOORD_0": 45,
            "TEXCOORD_1": 46,
            "TEXCOORD_2": 47
          },
          "indices": 48,
          "material": 0,
          "mode": 4
        }
      ]
    }
  ],
  "nodes": [
    {
      "children": [
        1
      ],
      "matrix": [
        1.0,
        0.0,
        0.0,
        0.0,
        0.0,
        2.220446049250313e-16,
        -1.0,
        0.0,
        0.0,
        1.0,
        2.220446049250313e-16,
        0.0,
        0.0,
        0.0,
        0.0,
        1.0
      ],
      "name": "Sketchfab_model"
    },
    {
      "children": [
        2
      ],
      "name": "root"
    },
    {
      "children": [
        3
      ],
      "matrix": [
        1.0,
        0.0,
        0.0,
        0.0,
        0.0,
        2.220446049250313e-16,
        1.0,
        0.0,
        0.0,
        -1.0,
        2.220446049250313e-16,
        0.0,
        0.0,
        0.0,
        0.0,
        1.0
      ],
      "name": "GLTF_SceneRootNode"
    },
    {
      "children": [
        4
      ],
      "matrix": [
        1.0,
        0.0,
        0.0,
        0.0,
        0.0,
        1.0,
        0.0,
        0.0,
        0.0,
        0.0,
        1.0,
        0.0,
        0.0,
        0.5569062232971191,
        0.0,
        1.0
      ],
      "name": "world_1"
    },
    {
      "children": [
        5,
        6,
        7,
        8,
        9,
        10,
        11
      ],
      "matrix": [
        1.0,
        0.0,
        0.0,
        0.0,
        0.0,
        1.0,
        0.0,
        0.0,
        0.0,
        0.0,
        1.0,
        0.0,
        0.0,
        1.9000000953674316,
        -2.0,
        1.0
      ],
      "name": "tmpi9maxhfp.ply_0"
    },
    {
      "mesh": 0,
      "name": "Object_5"
    },
    {
      "mesh": 1,
      "name": "Object_6"
    },
    {
      "mesh": 2,
      "name": "Object_7"
    },
    {
      "mesh": 3,
      "name": "Object_8"
    },
    {
      "mesh": 4,
      "name": "Object_9"
    },
    {
      "mesh": 5,
      "name": "Object_10"
    },
    {
      "mesh": 6,
      "name": "Object_11"
    }
  ],
  "samplers": [
    {
      "magFilter": 9729,
      "minFilter": 9987,
      "wrapS": 10497,
      "wrapT": 10497
    }
  ],
  "scene": 0,
  "scenes": [
    {
      "name": "Sketchfab_Scene",
      "nodes": [
        0
      ]
    }
  ],
  "textures": [
    {
      "sampler": 0,
      "source": 0
    },
    {
      "sampler": 0,
      "source": 1
    }
  ]
}
